
        <svg xmlns="http://www.w3.org/2000/svg" xmlns:xlink="http://www.w3.org/1999/xlink" version="1.1" width="3179.1044776119397" height="953.859572661892" viewBox="0 0 3179.1044776119397 953.859572661892">
			
			<g transform="scale(8.955223880597014) translate(10, 10)">
				<defs id="SvgjsDefs1027"/><g id="SvgjsG1028" featureKey="symbolFeature-0" transform="matrix(1.0557954547931374,0,0,1.0557954547931374,-10.321449342027892,-8.532616286689587)" fill="#000"><title xmlns="http://www.w3.org/2000/svg">NEWYEAR1</title><path xmlns="http://www.w3.org/2000/svg" d="M46.277,21.327c.515,3.807-.989,7.455-2.121,11.008a27.935,27.935,0,0,1-5.038,9.534C34.8,47.037,28.912,49.74,22.39,50.931a109.855,109.855,0,0,1-11.174,1.221c-1.912.15-1.928,3.151,0,3C18.3,54.6,25.579,54.123,32.1,51.06A28.594,28.594,0,0,0,46.726,34.142c1.486-4.452,3.088-8.853,2.443-13.612a1.509,1.509,0,0,0-1.845-1.048,1.537,1.537,0,0,0-1.047,1.845Z"/><path xmlns="http://www.w3.org/2000/svg" d="M46.183,12.5c-.106,7.264-.411,14.777,1.831,21.789A30.024,30.024,0,0,0,61.423,50.915a31.094,31.094,0,0,0,11.429,4.011A1.552,1.552,0,0,0,74.7,53.878a1.508,1.508,0,0,0-1.047-1.845A28.741,28.741,0,0,1,56.39,43c-4.709-5.168-6.652-11.807-7.11-18.659-.263-3.942-.154-7.9-.1-11.845a1.5,1.5,0,0,0-3,0Z"/><path xmlns="http://www.w3.org/2000/svg" d="M17.262,54.556a26.884,26.884,0,0,1,20.225,6.19A26.887,26.887,0,0,1,46.637,79c.137,1.915,3.138,1.93,3,0A29.886,29.886,0,0,0,39.608,58.625a29.817,29.817,0,0,0-22.346-7.069c-1.9.194-1.922,3.2,0,3Z"/><path xmlns="http://www.w3.org/2000/svg" d="M49.42,88.524c.007-7.983.863-15.965,5.928-22.48,4.4-5.655,11.016-8.945,17.9-10.48a46.824,46.824,0,0,1,11.748-1.028c1.931.064,1.929-2.936,0-3a45.25,45.25,0,0,0-21.965,4.486A29.437,29.437,0,0,0,48.091,73.738,51.207,51.207,0,0,0,46.42,88.524a1.5,1.5,0,0,0,3,0Z"/><path xmlns="http://www.w3.org/2000/svg" d="M76.378,13.943a7.861,7.861,0,0,1-.818,3.778,8.22,8.22,0,0,1-.836,1.459,6.392,6.392,0,0,1-.6.667q-.181.18-.373.348c.008-.007-.351.279-.21.175a6.667,6.667,0,0,1-2.916,1.241c-.307.066-.617.119-.927.169a.909.909,0,0,1-.154.022c-.132.017-.265.032-.4.046-.651.071-1.3.12-1.956.171a1.537,1.537,0,0,0-1.5,1.5,1.512,1.512,0,0,0,1.5,1.5c2.939-.23,5.9-.506,8.3-2.39a9.453,9.453,0,0,0,2.856-3.858,10,10,0,0,0,1.029-4.828,1.548,1.548,0,0,0-1.5-1.5,1.508,1.508,0,0,0-1.5,1.5Z"/><path xmlns="http://www.w3.org/2000/svg" d="M76.366,11.476c-.043,2.931-.089,5.979,1.421,8.6a10.1,10.1,0,0,0,7.162,4.836A1.55,1.55,0,0,0,86.8,23.867a1.512,1.512,0,0,0-1.048-1.845,7.252,7.252,0,0,1-5.465-3.628c-1.134-2.085-.951-4.575-.916-6.918a1.5,1.5,0,0,0-3,0Z"/><path xmlns="http://www.w3.org/2000/svg" d="M68.963,24.845a9.5,9.5,0,0,1,1.609-.012c.278.018-.055-.02.11.01.12.021.24.04.36.064.239.048.477.106.711.175.141.042.28.087.418.135.031.011.38.141.231.083s.193.087.224.1c.132.063.262.13.391.2q.323.175.627.378c.122.081.243.165.359.254-.162-.123.035.033.095.085a7.955,7.955,0,0,1,1.044,1.08c-.13-.162.016.028.066.1.069.1.136.2.2.3.142.221.274.449.394.683.055.106.106.214.158.322.2.411-.086-.258.072.169.082.225.16.45.226.68s.122.462.167.7c0,.022.073.479.035.167.017.142.028.285.039.428a1.5,1.5,0,1,0,3,0,9.657,9.657,0,0,0-10.536-9.093,1.534,1.534,0,0,0-1.5,1.5,1.517,1.517,0,0,0,1.5,1.5Z"/><path xmlns="http://www.w3.org/2000/svg" d="M79.435,33.724a12.141,12.141,0,0,1,.511-4.1A6.714,6.714,0,0,1,82.023,26.7a10.3,10.3,0,0,1,6.761-1.862,1.5,1.5,0,0,0,0-3,13.26,13.26,0,0,0-8.8,2.674,9.483,9.483,0,0,0-2.845,4.064,14.581,14.581,0,0,0-.709,5.147,1.5,1.5,0,0,0,3,0Z"/></g><g id="SvgjsG1029" featureKey="nameFeature-0" transform="matrix(1.6617295998451298,0,0,1.6617295998451298,105.58377303883748,-20.07362529514913)" fill="#000"><path d="M10.68 15.559999999999999 c0.24 0.53332 0.39336 0.87996 0.46004 1.04 s0.12668 0.42668 0.18 0.8 c-0.32 -0.26668 -0.6 -0.49336 -0.84 -0.68004 s-0.48 -0.35336 -0.72 -0.50004 s-0.50668 -0.27336 -0.8 -0.38004 s-0.64 -0.2 -1.04 -0.28 c-1.0667 -0.13332 -2.0734 -0.09332 -3.02 0.12 s-1.7467 0.55332 -2.4 1.02 s-1.1133 1.04 -1.38 1.72 s-0.26668 1.42 0 2.22 c0.29332 0.88 0.74664 1.7267 1.36 2.54 s1.3133 1.6066 2.1 2.38 s1.6267 1.5 2.52 2.18 s1.7466 1.32 2.56 1.92 s1.5666 1.14 2.26 1.62 s1.2266 0.89332 1.6 1.24 c0.82668 -0.42668 1.6 -0.78668 2.32 -1.08 s1.4667 -0.58664 2.24 -0.87996 l0.24 0 c0.10668 0.02668 0.12 0.10668 0.04 0.24 c-0.24 0.21332 -0.52668 0.44 -0.86 0.68 s-0.67332 0.48668 -1.02 0.74 s-0.68668 0.5 -1.02 0.74 s-0.63332 0.45332 -0.9 0.64 c0.77332 0.77332 1.28 1.4733 1.52 2.1 s0.25332 1.24 0.04 1.84 s-0.65332 1.2133 -1.32 1.84 s-1.5334 1.3 -2.6 2.02 c-0.69332 0.48 -1.44 0.89332 -2.24 1.24 s-1.54 0.55336 -2.22 0.62004 s-1.2267 -0.06 -1.64 -0.38 s-0.55332 -0.92 -0.42 -1.8 c0.42668 -1.44 1.2134 -2.7733 2.36 -4 s2.4667 -2.4667 3.96 -3.72 c0 -0.08 -0.26 -0.30668 -0.78 -0.68 s-1.1867 -0.85332 -2 -1.44 s-1.7066 -1.2667 -2.68 -2.04 s-1.9066 -1.5866 -2.8 -2.44 s-1.6866 -1.7466 -2.38 -2.68 s-1.16 -1.8533 -1.4 -2.76 c-0.32 -1.1467 -0.39332 -2.1467 -0.22 -3 s0.45332 -1.5666 0.84 -2.14 s0.81336 -1.02 1.28 -1.34 s0.84668 -0.53332 1.14 -0.64 c0.61332 -0.18668 1.2333 -0.34668 1.86 -0.48 s1.26 -0.17332 1.9 -0.12 s1.2867 0.23332 1.94 0.54 s1.3133 0.78 1.98 1.42 z M7.4 40.87996 c-0.05332 0.18668 0.013359 0.34008 0.20004 0.46008 s0.49336 0.16668 0.92004 0.14 s0.96668 -0.15336 1.62 -0.38004 s1.4333 -0.60668 2.34 -1.14 c0.66668 -0.45332 1.18 -0.94664 1.54 -1.48 s0.57332 -1.06 0.64 -1.58 s-0.02 -1 -0.26 -1.44 s-0.64 -0.79332 -1.2 -1.06 c-0.26668 0.13332 -0.71336 0.44664 -1.34 0.93996 s-1.2667 1.06 -1.92 1.7 s-1.2333 1.3067 -1.74 2 s-0.77336 1.3066 -0.80004 1.84 z M27.72 29.04 c0.10668 0.05332 0.23332 0.12 0.38 0.2 s0.28668 0.2 0.42 0.36 s0.24664 0.36668 0.33996 0.62 s0.14 0.58 0.14 0.98 c-0.05332 1.3867 -0.4 2.64 -1.04 3.76 s-1.4067 2.0667 -2.3 2.84 s-1.82 1.3466 -2.78 1.72 s-1.7733 0.50664 -2.44 0.39996 c0 2.5867 0.02 4.7468 0.06 6.48 s0.06668 3.1533 0.08 4.26 s0.01332 1.94 0 2.5 s-0.05332 0.94668 -0.12 1.16 s-0.18668 0.31332 -0.36 0.3 s-0.39332 -0.04664 -0.66 -0.09996 c-0.05332 0.08 -0.09332 0.01332 -0.12 -0.2 c-0.02668 -0.18668 -0.04668 -0.52 -0.06 -1 s-0.02 -1.2267 -0.02 -2.24 c0 -0.08 -0.0066796 -0.54 -0.02 -1.38 s-0.026641 -1.8933 -0.039961 -3.16 s-0.04 -2.66 -0.08 -4.18 s-0.08668 -3 -0.14 -4.44 s-0.11332 -2.7733 -0.18 -4 s-0.15336 -2.1734 -0.26004 -2.84 c0 -0.05332 -0.01332 -0.18664 -0.04 -0.39996 l-0.1 -0.8 l-0.16 -1.04 l-0.22 -1.08 c0.45332 -0.02668 0.76 0.02 0.92 0.14 s0.32 0.26 0.48 0.42 c0.16 0.50668 0.31332 1.32 0.46 2.44 s0.31336 2.64 0.50004 4.56 c0.05332 -0.26668 0.19332 -0.64 0.42 -1.12 s0.52668 -0.99332 0.9 -1.54 s0.8 -1.0867 1.28 -1.62 s0.98668 -0.98664 1.52 -1.36 s1.0733 -0.63332 1.62 -0.78 s1.0867 -0.1 1.62 0.14 z M22.68 38.04 c1.2267 -0.50668 2.1934 -1.1599 2.9001 -1.9599 s1.22 -1.5933 1.54 -2.38 s0.48 -1.4867 0.48 -2.1 s-0.12 -1 -0.36 -1.16 c-0.53332 -0.34668 -1.04 -0.38668 -1.52 -0.12 s-0.94668 0.58668 -1.4 0.96 c-0.24 0.21332 -0.57332 0.59332 -1 1.14 s-0.85336 1.1534 -1.28 1.82 s-0.79336 1.34 -1.1 2.02 s-0.46 1.2733 -0.46 1.78 c0.10668 0.13332 0.26668 0.22664 0.48 0.27996 c0.16 0.05332 0.38 0.06664 0.66 0.039961 s0.63332 -0.13336 1.06 -0.32004 z M38.68 28.240000000000002 c-0.02668 0.16 -0.0866 0.49324 -0.17992 0.99992 s-0.19332 1.1 -0.3 1.78 s-0.2 1.3933 -0.28 2.14 s-0.12668 1.4534 -0.14 2.12 s0.02668 1.2334 0.12 1.7 s0.24664 0.75336 0.45996 0.86004 c0.61332 0.29332 1.24 0.19332 1.88 -0.3 s1.3867 -1.2466 2.24 -2.26 c0.08 0 0.08668 0.10668 0.02 0.32 s-0.17336 0.44664 -0.32004 0.69996 l-0.44 0.76 l-0.34 0.5 c-0.21332 0.26668 -0.52 0.56668 -0.92 0.9 s-0.82668 0.6 -1.28 0.8 s-0.88664 0.28668 -1.3 0.26 s-0.75332 -0.26668 -1.02 -0.72 c-0.13332 -0.32 -0.21332 -0.71332 -0.24 -1.18 s-0.02668 -0.94 0 -1.42 s0.06668 -0.92 0.12 -1.32 s0.09332 -0.69332 0.12 -0.88 c-0.56 1.04 -1.2 2.0267 -1.92 2.96 s-1.4267 1.6666 -2.12 2.2 s-1.3333 0.82 -1.92 0.86 s-1.04 -0.3 -1.36 -1.02 c-0.18668 -0.69332 -0.18668 -1.4733 0 -2.34 s0.46668 -1.6467 0.84 -2.34 c0.56 -0.96 1.1467 -1.84 1.76 -2.64 s1.2666 -1.48 1.96 -2.04 s1.42 -0.96668 2.18 -1.22 s1.5533 -0.31332 2.38 -0.18 z M31.1601 38.3999 c0.26668 0.05332 0.69332 -0.14672 1.28 -0.60004 s1.2 -1.0866 1.84 -1.9 s1.22 -1.76 1.74 -2.84 s0.86 -2.22 1.02 -3.42 l-0.46 0 l-0.7 0.24 c-1.0133 0.66668 -1.88 1.4467 -2.6 2.34 s-1.28 1.76 -1.68 2.6 s-0.64 1.5933 -0.72 2.26 s0.01332 1.1067 0.28 1.32 z M42.239999999999995 27.36 c-0.02668 -0.24 0.099804 -0.30016 0.3798 -0.18016 s0.56668 0.24668 0.86 0.38 c0.10668 0.61332 0.18668 1.1 0.24 1.46 s0.09332 0.7 0.12 1.02 s0.05336 0.66668 0.08004 1.04 s0.06668 0.86664 0.12 1.48 c0.24 -0.61332 0.53332 -1.18 0.88 -1.7 s0.79336 -0.96668 1.34 -1.34 s1.2 -0.64664 1.96 -0.81996 s1.6733 -0.23332 2.74 -0.18 c0 0.21332 -0.07332 0.39332 -0.22 0.54 s-0.48668 0.26 -1.02 0.34 c-0.77332 0.13332 -1.4466 0.39332 -2.02 0.78 s-1.0666 0.83336 -1.48 1.34 s-0.74664 1.0467 -0.99996 1.62 s-0.46 1.1 -0.62 1.58 c-0.02668 0.24 -0.06 0.58 -0.1 1.02 s-0.06668 0.90668 -0.08 1.4 s-0.026641 0.97332 -0.039961 1.44 s0.0066796 0.83336 0.06 1.1 c0.02668 0.13332 -0.03332 0.23332 -0.18 0.3 s-0.31336 0.11336 -0.50004 0.14004 s-0.36 0.013359 -0.52 -0.039961 s-0.24 -0.14664 -0.24 -0.27996 c0.05332 -2.7467 -0.02 -5.1132 -0.22 -7.1 s-0.38 -3.7667 -0.54 -5.34 z M54.39999999999999 32.16 c0.61332 0.13332 1.1668 0.24016 1.6601 0.32016 s0.98664 0.15332 1.48 0.22 s1.04 0.12668 1.64 0.18 s1.3133 0.12 2.14 0.2 c0.24 0.26668 0.4 0.48668 0.48 0.66 s0.18668 0.44664 0.32 0.81996 c-0.85332 -0.16 -1.6266 -0.28 -2.32 -0.36 s-1.38 -0.14668 -2.06 -0.2 s-1.38 -0.1 -2.1 -0.14 s-1.52 -0.1 -2.4 -0.18 c-0.02668 1.36 0 2.5667 0.08 3.62 s0.08 2.0066 0 2.86 c-0.16 0.02668 -0.28668 0 -0.38 -0.08 s-0.18 -0.17332 -0.26 -0.28 s-0.16668 -0.22 -0.26 -0.34 s-0.22 -0.20668 -0.38 -0.26 c0.08 -3.68 0.06668 -7.0668 -0.04 -10.16 s-0.13336 -6.0532 -0.08004 -8.88 c0 -0.53332 0.0066796 -1.14 0.02 -1.82 s0.02 -1.3467 0.02 -2 s-0.01332 -1.24 -0.04 -1.76 s-0.08 -0.87332 -0.16 -1.06 c0.18668 -0.21332 0.36668 -0.34664 0.54 -0.39996 s0.48664 -0.09332 0.93996 -0.12 c0.05332 3.2533 0.05332 6.4668 0 9.64 s-0.05332 6.1868 0 9.04 c0.45332 -0.34668 0.93332 -0.77336 1.44 -1.28 s0.98 -1 1.42 -1.48 s0.82 -0.9 1.14 -1.26 s0.52 -0.55332 0.6 -0.58 c0.24 0.21332 0.48668 0.39332 0.74 0.54 s0.38 0.20668 0.38 0.18 c-0.66668 0.74668 -1.36 1.54 -2.08 2.38 s-1.5467 1.5 -2.48 1.98 z M63.87999999999999 31.72 c0 0.08 0.039922 0.45336 0.11992 1.12 s0.17332 1.48 0.28 2.44 s0.23336 1.9933 0.38004 3.1 s0.28 2.16 0.4 3.16 s0.23332 1.88 0.34 2.64 s0.17336 1.2467 0.20004 1.46 c-0.16 -0.02668 -0.29332 -0.05336 -0.4 -0.08004 s-0.21336 -0.09336 -0.32004 -0.20004 s-0.23336 -0.26 -0.38004 -0.46 s-0.35336 -0.48668 -0.62004 -0.86 c-0.34668 -2.4533 -0.62 -4.5932 -0.82 -6.42 s-0.36668 -3.3134 -0.5 -4.46 c-0.48 0.64 -0.82668 1.0667 -1.04 1.28 s-0.34664 0.32 -0.39996 0.32 c-0.08 0 -0.09332 -0.12 -0.04 -0.36 l0.08 -0.4 l0.08 -0.36 l0.12 -0.28 c0.18668 -0.26668 0.35336 -0.53336 0.50004 -0.80004 s0.26 -0.50668 0.34 -0.72 c0.10668 -0.26668 0.18668 -0.52 0.24 -0.76 c-0.02668 -0.29332 -0.04668 -0.54664 -0.06 -0.75996 s-0.02 -0.43332 -0.02 -0.66 s-0.0066796 -0.46 -0.02 -0.7 s-0.02 -0.54668 -0.02 -0.92 l0 -1.58 l0 -2.36 l0.04 -2.74 l0.1 -2.74 l0.16 -2.36 l0.22 -1.62 c0.18668 -0.77332 0.47336 -1.3666 0.86004 -1.78 s0.79336 -0.65332 1.22 -0.72 s0.84668 0.04 1.26 0.32 s0.72664 0.71332 0.93996 1.3 c0.24 0.58668 0.36 1.3467 0.36 2.28 s-0.08 1.9533 -0.24 3.06 s-0.38 2.26 -0.66 3.46 s-0.58 2.3667 -0.9 3.5 s-0.64 2.1933 -0.96 3.18 s-0.6 1.8134 -0.84 2.48 z M63.55989999999999 29.439999999999998 c0.66668 -1.9467 1.2132 -3.86 1.6399 -5.74 s0.74 -3.5667 0.94 -5.06 s0.26668 -2.7 0.2 -3.62 s-0.26 -1.3933 -0.58 -1.42 c-0.50668 -0.18668 -0.90668 -0.013359 -1.2 0.51996 s-0.52664 1.28 -0.69996 2.24 s-0.28664 2.06 -0.33996 3.3 s-0.07332 2.4733 -0.06 3.7 s0.03332 2.3867 0.06 3.48 s0.04 1.96 0.04 2.6 z M70.03999999999998 28.68 c0.08 -0.02668 0.30668 -0.10016 0.68 -0.22016 s0.68 -0.14 0.92 -0.06 c0.77332 -0.02668 1.3666 0.17332 1.78 0.6 s0.44664 1.2534 0.09996 2.48 c-0.50668 1.36 -1.18 2.4933 -2.02 3.4 s-1.8333 1.7734 -2.98 2.6 c0.26668 0.69332 0.66668 1.08 1.2 1.16 s1.0933 -0.0066796 1.68 -0.26 s1.16 -0.59332 1.72 -1.02 s1.0133 -0.8 1.36 -1.12 c0.56 -0.48 1.0067 -0.88668 1.34 -1.22 s0.68664 -0.74 1.06 -1.22 c0.08 -0.05332 0.12668 -0.04664 0.14 0.020039 s0.0066408 0.16668 -0.020039 0.3 s-0.06668 0.32 -0.12 0.56 c-0.08 0.18668 -0.16 0.35336 -0.24 0.50004 s-0.19332 0.30668 -0.34 0.48 s-0.34 0.38 -0.58 0.62 s-0.53332 0.56 -0.88 0.96 c-0.4 0.37332 -0.78668 0.74 -1.16 1.1 s-0.76664 0.67332 -1.18 0.94 s-0.86664 0.45336 -1.36 0.56004 s-1.06 0.10668 -1.7 0 c-0.53332 -0.18668 -0.96 -0.38668 -1.28 -0.6 s-0.56668 -0.43332 -0.74 -0.66 s-0.3 -0.43336 -0.38 -0.62004 s-0.13332 -0.34668 -0.16 -0.48 c-0.13332 -0.53332 -0.18664 -1.2533 -0.15996 -2.16 s0.29336 -2.08 0.80004 -3.52 c0.34668 -0.74668 0.72 -1.38 1.12 -1.9 s0.86668 -0.92668 1.4 -1.22 z M68.27999999999999 35.76 c0.34668 -0.18668 0.75312 -0.44672 1.2198 -0.78004 s0.90668 -0.72 1.32 -1.16 s0.77332 -0.92668 1.08 -1.46 s0.47336 -1.0933 0.50004 -1.68 c0.08 -0.4 0.06668 -0.68 -0.04 -0.84 c-0.05332 -0.08 -0.10664 -0.12 -0.15996 -0.12 c-0.45332 -0.21332 -0.90664 -0.14664 -1.36 0.20004 s-0.86664 0.84 -1.24 1.48 s-0.68664 1.3533 -0.93996 2.14 s-0.38 1.5267 -0.38 2.22 z M97.07999999999998 13.2 c-0.21332 0.08 -0.66004 0.1998 -1.34 0.3598 s-1.4867 0.49332 -2.42 1 s-1.9133 1.2467 -2.94 2.22 s-1.98 2.3 -2.86 3.98 c-0.29332 0.61332 -0.58 1.4066 -0.86 2.38 s-0.52668 1.9333 -0.74 2.88 s-0.38 1.7667 -0.5 2.46 s-0.15332 1.04 -0.1 1.04 c-0.18668 1.8133 -0.19336 3.28 -0.020039 4.4 s0.44664 2 0.81996 2.64 s0.81332 1.0867 1.32 1.34 s1 0.4 1.48 0.44 s0.91332 0.01332 1.3 -0.08 s0.63336 -0.14 0.74004 -0.14 c0.77332 -0.32 1.5133 -0.74668 2.22 -1.28 s1.3667 -1.14 1.98 -1.82 s1.1733 -1.42 1.68 -2.22 s0.96 -1.6267 1.36 -2.48 c0.10668 -0.13332 0.24668 -0.26664 0.42 -0.39996 s0.34 -0.24664 0.5 -0.33996 s0.3 -0.14664 0.42 -0.15996 s0.18 0.033359 0.18 0.14004 c-0.45332 1.4667 -1.0866 2.8 -1.9 4 s-1.6933 2.2533 -2.64 3.16 s-1.9067 1.6534 -2.88 2.24 s-1.86 1 -2.66 1.24 c-1.1467 0.21332 -2.22 -0.0066796 -3.22 -0.66 s-1.7933 -1.8866 -2.38 -3.7 c-0.18668 -0.96 -0.32668 -2.0333 -0.42 -3.22 s-0.04664 -2.3667 0.14004 -3.54 c0.16 -2.2667 0.57332 -4.36 1.24 -6.28 s1.5067 -3.62 2.52 -5.1 s2.16 -2.7 3.44 -3.66 s2.6133 -1.6133 4 -1.96 c0.10668 0 0.30668 0.02668 0.6 0.08 s0.58 0.13332 0.86 0.24 s0.5 0.22668 0.66 0.36 s0.16 0.28 0 0.44 z M103.32 31.72 c0 0.08 0.039922 0.45336 0.11992 1.12 s0.17332 1.48 0.28 2.44 s0.23336 1.9933 0.38004 3.1 s0.28 2.16 0.4 3.16 s0.23332 1.88 0.34 2.64 s0.17336 1.2467 0.20004 1.46 c-0.16 -0.02668 -0.29332 -0.05336 -0.4 -0.08004 s-0.21336 -0.09336 -0.32004 -0.20004 s-0.23336 -0.26 -0.38004 -0.46 s-0.35336 -0.48668 -0.62004 -0.86 c-0.34668 -2.4533 -0.62 -4.5932 -0.82 -6.42 s-0.36668 -3.3134 -0.5 -4.46 c-0.48 0.64 -0.82668 1.0667 -1.04 1.28 s-0.34664 0.32 -0.39996 0.32 c-0.08 0 -0.09332 -0.12 -0.04 -0.36 l0.08 -0.4 l0.08 -0.36 l0.12 -0.28 c0.18668 -0.26668 0.35336 -0.53336 0.50004 -0.80004 s0.26 -0.50668 0.34 -0.72 c0.10668 -0.26668 0.18668 -0.52 0.24 -0.76 c-0.02668 -0.29332 -0.04668 -0.54664 -0.06 -0.75996 s-0.02 -0.43332 -0.02 -0.66 s-0.0066796 -0.46 -0.02 -0.7 s-0.02 -0.54668 -0.02 -0.92 l0 -1.58 l0 -2.36 l0.04 -2.74 l0.1 -2.74 l0.16 -2.36 l0.22 -1.62 c0.18668 -0.77332 0.47336 -1.3666 0.86004 -1.78 s0.79336 -0.65332 1.22 -0.72 s0.84668 0.04 1.26 0.32 s0.72664 0.71332 0.93996 1.3 c0.24 0.58668 0.36 1.3467 0.36 2.28 s-0.08 1.9533 -0.24 3.06 s-0.38 2.26 -0.66 3.46 s-0.58 2.3667 -0.9 3.5 s-0.64 2.1933 -0.96 3.18 s-0.6 1.8134 -0.84 2.48 z M102.99989999999998 29.439999999999998 c0.66668 -1.9467 1.2132 -3.86 1.6399 -5.74 s0.74 -3.5667 0.94 -5.06 s0.26668 -2.7 0.2 -3.62 s-0.26 -1.3933 -0.58 -1.42 c-0.50668 -0.18668 -0.90668 -0.013359 -1.2 0.51996 s-0.52664 1.28 -0.69996 2.24 s-0.28664 2.06 -0.33996 3.3 s-0.07332 2.4733 -0.06 3.7 s0.03332 2.3867 0.06 3.48 s0.04 1.96 0.04 2.6 z M109.47999999999998 28.68 c0.08 -0.02668 0.30668 -0.10016 0.68 -0.22016 s0.68 -0.14 0.92 -0.06 c0.77332 -0.02668 1.3666 0.17332 1.78 0.6 s0.44664 1.2534 0.09996 2.48 c-0.50668 1.36 -1.18 2.4933 -2.02 3.4 s-1.8333 1.7734 -2.98 2.6 c0.26668 0.69332 0.66668 1.08 1.2 1.16 s1.0933 -0.0066796 1.68 -0.26 s1.16 -0.59332 1.72 -1.02 s1.0133 -0.8 1.36 -1.12 c0.56 -0.48 1.0067 -0.88668 1.34 -1.22 s0.68664 -0.74 1.06 -1.22 c0.08 -0.05332 0.12668 -0.04664 0.14 0.020039 s0.0066408 0.16668 -0.020039 0.3 s-0.06668 0.32 -0.12 0.56 c-0.08 0.18668 -0.16 0.35336 -0.24 0.50004 s-0.19332 0.30668 -0.34 0.48 s-0.34 0.38 -0.58 0.62 s-0.53332 0.56 -0.88 0.96 c-0.4 0.37332 -0.78668 0.74 -1.16 1.1 s-0.76664 0.67332 -1.18 0.94 s-0.86664 0.45336 -1.36 0.56004 s-1.06 0.10668 -1.7 0 c-0.53332 -0.18668 -0.96 -0.38668 -1.28 -0.6 s-0.56668 -0.43332 -0.74 -0.66 s-0.3 -0.43336 -0.38 -0.62004 s-0.13332 -0.34668 -0.16 -0.48 c-0.13332 -0.53332 -0.18664 -1.2533 -0.15996 -2.16 s0.29336 -2.08 0.80004 -3.52 c0.34668 -0.74668 0.72 -1.38 1.12 -1.9 s0.86668 -0.92668 1.4 -1.22 z M107.71999999999998 35.76 c0.34668 -0.18668 0.75312 -0.44672 1.2198 -0.78004 s0.90668 -0.72 1.32 -1.16 s0.77332 -0.92668 1.08 -1.46 s0.47336 -1.0933 0.50004 -1.68 c0.08 -0.4 0.06668 -0.68 -0.04 -0.84 c-0.05332 -0.08 -0.10664 -0.12 -0.15996 -0.12 c-0.45332 -0.21332 -0.90664 -0.14664 -1.36 0.20004 s-0.86664 0.84 -1.24 1.48 s-0.68664 1.3533 -0.93996 2.14 s-0.38 1.5267 -0.38 2.22 z M123.99999999999997 28.240000000000002 c-0.02668 0.16 -0.0866 0.49324 -0.17992 0.99992 s-0.19332 1.1 -0.3 1.78 s-0.2 1.3933 -0.28 2.14 s-0.12668 1.4534 -0.14 2.12 s0.02668 1.2334 0.12 1.7 s0.24664 0.75336 0.45996 0.86004 c0.61332 0.29332 1.24 0.19332 1.88 -0.3 s1.3867 -1.2466 2.24 -2.26 c0.08 0 0.08668 0.10668 0.02 0.32 s-0.17336 0.44664 -0.32004 0.69996 l-0.44 0.76 l-0.34 0.5 c-0.21332 0.26668 -0.52 0.56668 -0.92 0.9 s-0.82668 0.6 -1.28 0.8 s-0.88664 0.28668 -1.3 0.26 s-0.75332 -0.26668 -1.02 -0.72 c-0.13332 -0.32 -0.21332 -0.71332 -0.24 -1.18 s-0.02668 -0.94 0 -1.42 s0.06668 -0.92 0.12 -1.32 s0.09332 -0.69332 0.12 -0.88 c-0.56 1.04 -1.2 2.0267 -1.92 2.96 s-1.4267 1.6666 -2.12 2.2 s-1.3333 0.82 -1.92 0.86 s-1.04 -0.3 -1.36 -1.02 c-0.18668 -0.69332 -0.18668 -1.4733 0 -2.34 s0.46668 -1.6467 0.84 -2.34 c0.56 -0.96 1.1467 -1.84 1.76 -2.64 s1.2666 -1.48 1.96 -2.04 s1.42 -0.96668 2.18 -1.22 s1.5533 -0.31332 2.38 -0.18 z M116.48009999999998 38.3999 c0.26668 0.05332 0.69332 -0.14672 1.28 -0.60004 s1.2 -1.0866 1.84 -1.9 s1.22 -1.76 1.74 -2.84 s0.86 -2.22 1.02 -3.42 l-0.46 0 l-0.7 0.24 c-1.0133 0.66668 -1.88 1.4467 -2.6 2.34 s-1.28 1.76 -1.68 2.6 s-0.64 1.5933 -0.72 2.26 s0.01332 1.1067 0.28 1.32 z M128.99999999999997 27.8 c0 0.74668 -0.0068752 1.4932 -0.020195 2.2399 s-0.026641 1.4667 -0.039961 2.16 s-0.026641 1.3466 -0.039961 1.96 s-0.03332 1.16 -0.06 1.64 c0 -0.10668 0.06 -0.36668 0.18 -0.78 s0.28668 -0.88664 0.5 -1.42 s0.44664 -1.1 0.69996 -1.7 s0.52664 -1.1333 0.81996 -1.6 s0.59332 -0.83336 0.9 -1.1 s0.59336 -0.34668 0.86004 -0.24 c0.58668 0.26668 1 0.65336 1.24 1.16 s0.41332 1.0867 0.52 1.74 s0.21336 1.38 0.32004 2.18 s0.34668 1.64 0.72 2.52 c0.16 0.4 0.39332 0.69332 0.7 0.88 s0.6 0.32 0.88 0.4 s0.50668 0.12668 0.68 0.14 s0.23332 0.06 0.18 0.14 c-0.66668 0.50668 -1.24 0.68 -1.72 0.52 s-0.88668 -0.51332 -1.22 -1.06 s-0.60664 -1.2 -0.81996 -1.96 s-0.40664 -1.4933 -0.57996 -2.2 s-0.32664 -1.3067 -0.45996 -1.8 s-0.28 -0.74 -0.44 -0.74 c-0.24 0.02668 -0.5 0.25336 -0.78 0.68004 s-0.56668 0.96 -0.86 1.6 s-0.57332 1.34 -0.84 2.1 s-0.51336 1.4733 -0.74004 2.14 s-0.40668 1.24 -0.54 1.72 s-0.21332 0.77332 -0.24 0.88 c-0.4 0 -0.64668 0.01332 -0.74 0.04 s-0.24664 -0.10664 -0.45996 -0.39996 c0.13332 -2.3467 0.18 -4.5668 0.14 -6.66 s-0.1 -3.9133 -0.18 -5.46 c0 -0.24 0.06 -0.36 0.18 -0.36 s0.25332 0.05332 0.4 0.16 s0.3 0.21336 0.46 0.32004 s0.29332 0.16 0.4 0.16 z"/></g><g id="SvgjsG1030" featureKey="sloganFeature-0" transform="matrix(0.5208736083878168,0,0,0.5208736083878168,154.90616509950212,60.87171107493988)" fill="#000"><path d="M10.85 6.191000000000001 l1.9434 0 l0 13.809 l-1.9434 0 l0 -6.0547 l-6.7871 0 l0 6.0547 l-1.9629 0 l0 -13.809 l1.9629 0 l0 6.0254 l6.7871 0 l0 -6.0254 z M31.730249609375 20.18555 c-3.916 0 -6.9043 -2.6953 -6.9043 -7.0996 c0 -4.3945 2.9883 -7.0801 6.9043 -7.0801 c3.8965 0 6.8945 2.6855 6.8945 7.0801 c0 4.4043 -2.998 7.0996 -6.8945 7.0996 z M31.730249609375 18.3594 c2.7637 0 4.9512 -1.9141 4.9512 -5.2734 c0 -3.3301 -2.1875 -5.2441 -4.9512 -5.2441 c-2.7734 0 -4.9707 1.9141 -4.9707 5.2441 c0 3.3594 2.1973 5.2734 4.9707 5.2734 z M55.44283984375 20.18555 c-2.8613 0 -5.0781 -1.6895 -5.0781 -4.8047 l0 -9.1895 l1.9434 0 l0 8.916 c0 2.2754 1.3672 3.3203 3.1348 3.3203 s3.1641 -1.0547 3.1641 -3.3203 l0 -8.916 l1.9434 0 l0 9.1895 c0 3.1152 -2.2266 4.8047 -5.1074 4.8047 z M77.573505078125 20.18555 c-2.8809 0 -4.9902 -1.377 -5.459 -3.7207 l1.9824 -0.46875 c0.3125 1.6113 1.709 2.5391 3.5449 2.5391 c1.4746 0 2.8906 -0.60547 2.8613 -2.2656 c-0.019531 -1.6406 -1.7969 -2.0898 -3.6816 -2.6074 c-2.1387 -0.58594 -4.2773 -1.2598 -4.2773 -3.7988 c0 -2.5684 2.1191 -3.8574 4.6289 -3.8574 c2.4316 0 4.6191 1.0254 5.1367 3.3984 l-1.8848 0.47852 c-0.3418 -1.5332 -1.6211 -2.2168 -3.1641 -2.2168 c-1.3867 0 -2.7637 0.60547 -2.7637 2.1777 c0 1.4258 1.543 1.8457 3.291 2.3145 c2.1973 0.5957 4.7168 1.2793 4.7168 4.0527 c0 2.793 -2.3438 3.9746 -4.9316 3.9746 z M101.9892828125 7.939 l-5.5273 0 l0 4.2969 l4.873 0 l0 1.7383 l-4.873 0 l0 4.2676 l5.5273 0 l0 1.7578 l-7.5098 0 l0 -13.809 l7.5098 0 l0 1.748 z M122.039669921875 20 l-4.8438 -6.2988 l-1.1914 0 l0 6.2988 l-1.9434 0 l0 -13.809 l1.9434 0 l0 5.7715 l1.1719 0 l4.707 -5.7715 l2.3828 0 l-5.4102 6.582 l5.6738 7.2266 l-2.4902 0 z M143.40871640625 7.939 l-5.5273 0 l0 4.2969 l4.873 0 l0 1.7383 l-4.873 0 l0 4.2676 l5.5273 0 l0 1.7578 l-7.5098 0 l0 -13.809 l7.5098 0 l0 1.748 z M162.990503515625 7.939 l-5.5273 0 l0 4.2969 l4.873 0 l0 1.7383 l-4.873 0 l0 4.2676 l5.5273 0 l0 1.7578 l-7.5098 0 l0 -13.809 l7.5098 0 l0 1.748 z M180.384790625 6.191000000000001 c2.5293 0 4.1602 1.9141 4.1602 4.2773 c0 2.3926 -1.6309 4.2383 -4.1602 4.2383 l-3.3789 0 l0 5.293 l-1.9434 0 l0 -13.809 l5.3223 0 z M180.091790625 13.0273 c1.6211 0 2.5293 -1.0449 2.5293 -2.5879 c0 -1.4844 -0.9082 -2.5781 -2.5293 -2.5781 l-3.0859 0 l0 5.166 l3.0859 0 z M196.284902734375 20 l0 -13.809 l1.9434 0 l0 13.809 l-1.9434 0 z M220.52465234375 6.191000000000001 l1.9336 0 l0 13.809 l-2.0996 0 l-7.2168 -10.957 l0 10.957 l-1.9238 0 l0 -13.809 l2.0801 0 l7.2266 10.908 l0 -10.908 z M241.317611328125 20.18555 c-3.8672 0 -6.8359 -2.6465 -6.8359 -7.0508 c0 -4.4434 2.9883 -7.1289 6.9043 -7.1289 c2.5391 0 4.7168 1.1133 5.9082 3.2227 l-1.7188 0.91797 c-0.86914 -1.6211 -2.4219 -2.373 -4.1895 -2.373 c-2.793 0 -4.9512 1.8945 -4.9512 5.3223 c0 3.3789 2.1094 5.3418 5.0195 5.3418 c2.3438 0 4.1797 -1.3184 4.502 -3.9355 l-4.5117 0 l0 -1.6211 l6.3965 0 l0 7.1191 l-1.582 0 l0 -2.4805 c-0.9082 1.6895 -2.6172 2.666 -4.9414 2.666 z"/></g>
			</g>
		</svg>
	